# xmcd
#
# Track frame offsets:
# 150
# 15963
# 33308
# 53440
# 73589
# 85971
# 111093
# 131639
# 150041
# 171284
# 192011
# 208992
# 227090
# 239020
# 257353
# 268908
# 289966
# 301583
# 318160
# 335591
#
# Disc length: 4619 seconds
#
#
# Revision: 0
# Processed by: cddbd v1.5PL3 Copyright (c) Steve Scherf et al.
# Submitted via: FreeRIP 2.70 
#
DISCID=0c120914
DTITLE=Eddie Floyd - Knock on Wood
DYEAR=1997
DGENRE=Blues
TTITLE0=Knock on Wood
TTITLE1=Time
TTITLE2=I Want to Dance
TTITLE3=Look what you have Done to me
TTITLE4=Come over to my Place
TTITLE5=I´m so Funkful
TTITLE6=Our Love will Survive
TTITLE7=Independent
TTITLE8=So Easy
TTITLE9=Tonight we love
TTITLE10=Looking for Girls
TTITLE11=California Girl
TTITLE12=Bring it on Home to me
TTITLE13=Mr Blue
TTITLE14=Things get better
TTITLE15=On a Saturday Night
TTITLE16=Go to make a Comeback
TTITLE17=I´ve never found a girl
TTITLE18=I´ve got a reason to smile(´Cause I got you)
TTITLE19=Raise your HAnd
EXTD=
EXTT0=
EXTT1=
EXTT2=
EXTT3=
EXTT4=
EXTT5=
EXTT6=
EXTT7=
EXTT8=
EXTT9=
EXTT10=
EXTT11=
EXTT12=
EXTT13=
EXTT14=
EXTT15=
EXTT16=
EXTT17=
EXTT18=
EXTT19=
PLAYORDER=
